<svg xmlns="http://www.w3.org/2000/svg" viewBox="0 0 64 64" role="img" aria-label="Tree icon">
  <defs>
    <linearGradient id="g" x1="10" y1="6" x2="54" y2="58" gradientUnits="userSpaceOnUse">
      <stop offset="0" stop-color="#22c55e"/>
      <stop offset="0.55" stop-color="#16a34a"/>
      <stop offset="1" stop-color="#14532d"/>
    </linearGradient>
  </defs>
  <path fill="url(#g)" d="M32 4c-1.5 0-2.9.8-3.7 2.1l-5.5 8.7h-8.2c-1.7 0-3.2 1-3.9 2.6s-.5 3.4.6 4.8l6.3 8.2H11c-1.7 0-3.2 1-3.9 2.6s-.5 3.4.6 4.8l10.4 13.4c.8 1 2 1.6 3.3 1.6h5.9v4.2c0 1.2 1 2.2 2.2 2.2h5c1.2 0 2.2-1 2.2-2.2v-4.2h5.9c1.3 0 2.5-.6 3.3-1.6l10.4-13.4c1.1-1.4 1.3-3.2.6-4.8S53 30.2 51.3 30.2h-3.6l6.3-8.2c1.1-1.4 1.3-3.2.6-4.8s-2.2-2.6-3.9-2.6h-8.2l-5.5-8.7C34.9 4.8 33.5 4 32 4z"/>
  <path fill="#0b1b3a" opacity=".22" d="M19.1 18.4h8.9l4.9-7.7a2.1 2.1 0 0 1 3.6 0l4.9 7.7h8.9c.9 0 1.7.5 2 1.4.4.8.3 1.8-.3 2.5l-7.9 10.3h7.2c.9 0 1.7.5 2 1.4.4.8.3 1.8-.3 2.5L43.8 52.8a2.1 2.1 0 0 1-1.7.8H38v5.5c0 .6-.5 1.1-1.1 1.1h-9.8c-.6 0-1.1-.5-1.1-1.1v-5.5h-4.1c-.7 0-1.3-.3-1.7-.8L8 38.5c-.6-.7-.7-1.7-.3-2.5.3-.9 1.1-1.4 2-1.4h7.2L9 24.3c-.6-.7-.7-1.7-.3-2.5.3-.9 1.1-1.4 2-1.4z"/>
</svg>
